<svg width="654" height="623" viewBox="0 0 654 623" fill="none" xmlns="http://www.w3.org/2000/svg">
<path d="M618 308.5C618 462.311 487.715 587 327 587C166.285 587 36 462.311 36 308.5C36 154.689 166.285 30 327 30C487.715 30 618 154.689 618 308.5Z" fill="white" fill-opacity="0.2"/>
<path d="M654 278.5C654 432.311 523.715 557 363 557C202.285 557 72 432.311 72 278.5C72 124.689 202.285 0 363 0C523.715 0 654 124.689 654 278.5Z" fill="white" fill-opacity="0.2"/>
<path d="M618 308.5C618 462.311 487.715 587 327 587C166.285 587 36 462.311 36 308.5C36 154.689 166.285 30 327 30C487.715 30 618 154.689 618 308.5Z" fill="white" fill-opacity="0.2"/>
<path d="M582 278.5C582 432.311 451.715 557 291 557C130.285 557 0 432.311 0 278.5C0 124.689 130.285 0 291 0C451.715 0 582 124.689 582 278.5Z" fill="white" fill-opacity="0.2"/>
<path d="M582 344.5C582 498.311 451.715 623 291 623C130.285 623 0 498.311 0 344.5C0 190.689 130.285 66 291 66C451.715 66 582 190.689 582 344.5Z" fill="white" fill-opacity="0.2"/>
<path d="M654 344.5C654 498.311 523.715 623 363 623C202.285 623 72 498.311 72 344.5C72 190.689 202.285 66 363 66C523.715 66 654 190.689 654 344.5Z" fill="white" fill-opacity="0.2"/>
</svg>
